<svg xmlns="http://www.w3.org/2000/svg" viewBox="0 0 39 49" fill="#a3ff5c">
  <path fill-rule="evenodd" clip-rule="evenodd" d="M38.3849 16.8356C38.0465 16.4765 37.2161 15.8751 36.5393 15.4977L28.6391 11.0933C27.9624 10.7158 27.4081 9.78967 27.4081 9.03433V2.79442H29.4033C30.1846 2.79442 30.8243 2.17714 30.8243 1.42279V1.37263C30.8243 0.617783 30.1846 0 29.4033 0H26.035C26.0262 0 26.0185 0.00148983 26.0108 0.00148983C26.003 0.00148983 25.9953 0 25.9871 0H25.9352C25.1536 0 24.5138 0.617783 24.5138 1.37263V7.42034C24.5138 8.17569 24.5138 9.41026 24.5138 10.1656V10.6488C24.5138 11.4032 25.0677 12.3293 25.7449 12.7068L33.644 17.1112C34.3212 17.4886 35.1518 18.0905 35.4902 18.4496C35.8286 18.8081 36.1057 20.4737 36.1057 21.2276V34.2556C36.1057 35.0105 35.9808 36.0057 35.8286 36.468C35.6764 36.9304 34.3212 37.9951 33.644 38.3725L21.961 44.8866C21.2842 45.264 20.3293 45.6568 19.8382 45.7606C19.3475 45.8644 17.7157 45.264 17.0385 44.8866L5.35551 38.3725C4.67823 37.9951 3.84821 37.3927 3.50931 37.0342C3.17094 36.6756 2.89426 35.0105 2.89426 34.2556V21.2276C2.89426 20.4737 3.01871 19.4775 3.17145 19.0152C3.32315 18.5528 4.67823 17.4881 5.35602 17.1112L13.1379 12.7723C13.8146 12.3944 14.3679 11.4682 14.3679 10.7144V10.2312C14.3679 9.47631 14.3679 8.24174 14.3679 7.48639V1.62987C14.3787 1.56233 14.386 1.49331 14.386 1.42328V1.37263C14.386 0.617783 13.7472 0 12.965 0H12.9471H12.8945H9.5961C8.81443 0 8.1752 0.617783 8.1752 1.37263V1.42328C8.1752 2.17763 8.81443 2.79492 9.5961 2.79492H11.4732V9.10038C11.4732 9.85522 10.9193 10.7819 10.242 11.1593L2.46125 15.4977C1.78449 15.8751 0.953953 16.4765 0.61557 16.8356C0.276672 17.1941 0 18.8598 0 19.6141V35.8686C0 36.6235 0.124451 37.6192 0.276672 38.082C0.428893 38.5439 1.78449 39.6091 2.46125 39.986L17.039 48.1131C17.7157 48.4905 18.6712 48.8853 19.1618 48.9881C19.653 49.0919 21.2842 48.4905 21.9615 48.1131L36.5398 39.986C37.2161 39.6086 38.0471 39.0062 38.3854 38.6477C38.7238 38.2896 39.0005 36.6235 39.0005 35.8686V19.6141C39 18.8598 38.7233 17.1941 38.3849 16.8356Z"/>
</svg>
